<svg id="Livello_1" data-name="Livello 1" xmlns="http://www.w3.org/2000/svg" viewBox="0 0 100 100"><defs><style>.cls-1{fill:#fff;}.cls-2{fill:#f5a714;}</style></defs><g id="Chance_of_a_Thunderstorm" data-name="Chance of a Thunderstorm"><path class="cls-1" d="M77.35,34a19.91,19.91,0,0,0,.35-3.7,20.36,20.36,0,0,0-37.37-11.2A13.91,13.91,0,0,0,34.78,18,14.14,14.14,0,0,0,20.66,32.06a3.77,3.77,0,0,0,0,.47,15.51,15.51,0,0,0,4.84,30.25h7.65c2.42,0,2.29-4,0-4H25.52A11.48,11.48,0,0,1,23.26,36l1.9-.38-.31-1.93a10,10,0,0,1-.15-1.64,10.06,10.06,0,0,1,15.35-8.57l1.83,1.13,1-1.9a16.32,16.32,0,0,1,30.77,7.59,16.52,16.52,0,0,1-.79,5L72,38.17l3.13-.2.48,0a10.41,10.41,0,1,1,0,20.81H66.84c-2.62,0-3,4,0,4h8.72A14.44,14.44,0,0,0,77.35,34Z"/><path class="cls-2" d="M41.32,90.05a2,2,0,0,1-1-.3A2,2,0,0,1,39.6,87L51.66,67.1H39.05L53.26,46.93a2,2,0,0,1,3.31,2.32l-9.74,13.8h12l-15.76,26A2,2,0,0,1,41.32,90.05Z"/></g></svg>