<svg id="Livello_1" data-name="Livello 1" xmlns="http://www.w3.org/2000/svg" viewBox="0 0 100 100"><defs><style>.cls-1{fill:#fff;}</style></defs><g id="Hazy"><path class="cls-1" d="M66.72,58.34A28,28,0,0,1,50.26,53.2C36.65,43.59,25.17,43.06,13,51.46a1.94,1.94,0,1,1-2.21-3.2C24.32,38.91,37.57,39.48,52.5,50c11.73,8.28,25.27,3.57,34.58-1.84a1.95,1.95,0,0,1,2,3.37C81.25,56.07,73.68,58.34,66.72,58.34Z"/><path class="cls-1" d="M66.72,73.06a28,28,0,0,1-16.46-5.14C36.65,58.32,25.17,57.77,13,66.18A1.94,1.94,0,1,1,10.83,63c13.49-9.35,26.74-8.8,41.67,1.76C64.21,73,77.77,68.31,87.08,62.91a1.94,1.94,0,0,1,2,3.36C81.25,70.79,73.68,73.06,66.72,73.06Z"/><path class="cls-1" d="M66.72,43.62a28,28,0,0,1-16.46-5.14C36.65,28.87,25.17,28.34,13,36.74a1.94,1.94,0,1,1-2.21-3.19c13.49-9.35,26.74-8.8,41.67,1.75,11.71,8.28,25.27,3.57,34.58-1.84a1.95,1.95,0,0,1,2,3.37C81.25,41.35,73.68,43.62,66.72,43.62Z"/></g></svg>