<svg id="Livello_1" data-name="Livello 1" xmlns="http://www.w3.org/2000/svg" viewBox="0 0 100 100"><defs><style>.cls-1{fill:#fff;}.cls-2{fill:#71b7d3;}</style></defs><g id="Chance_of_Snow_Showers" data-name="Chance of Snow Showers"><path class="cls-1" d="M77.35,36.62a20.79,20.79,0,0,0,.34-3.7A20.36,20.36,0,0,0,40.34,21.71a14.1,14.1,0,0,0-19.68,13c0,.15,0,.31,0,.47a15.51,15.51,0,0,0,4.84,30.25h7.65c2.42,0,2.29-4,0-4H25.51a11.48,11.48,0,0,1-2.26-22.74l1.9-.38-.31-1.92A10,10,0,0,1,40,26.1l1.84,1.13,1-1.91a16.33,16.33,0,0,1,30.78,7.6,16.12,16.12,0,0,1-.8,5l-.92,2.84,3.14-.21h.48a10.4,10.4,0,1,1,0,20.8H66.83c-2.61,0-3,4,0,4h8.73a14.44,14.44,0,0,0,1.79-28.76Z"/><path class="cls-2" d="M64.2,69.85l-7.74,0h0a6.35,6.35,0,0,0-.75-1.78l3.48-3.5a1.65,1.65,0,0,0-2.35-2.32l-3.47,3.5A6.71,6.71,0,0,0,51.6,65l0-7.74a1.65,1.65,0,1,0-3.3,0l0,7.74a6.27,6.27,0,0,0-1.77.74L43.2,62.51a1.65,1.65,0,1,0-2.34,2.34l3.32,3.3h0a6.59,6.59,0,0,0-.75,1.79h0l-7.74,0a1.65,1.65,0,0,0,0,3.3l7.74,0h0A6.9,6.9,0,0,0,44.2,75l-3.47,3.49a1.67,1.67,0,0,0,0,2.35,1.68,1.68,0,0,0,2.34,0l3.47-3.5a6.61,6.61,0,0,0,1.78.73l0,7.74a1.65,1.65,0,0,0,3.3,0l0-7.75a6.83,6.83,0,0,0,1.78-.74h0l3.31,3.29a1.6,1.6,0,0,0,1.17.48,1.69,1.69,0,0,0,1.17-.49,1.66,1.66,0,0,0,0-2.34L55.74,75a0,0,0,0,1,0,0,6.57,6.57,0,0,0,.74-1.79l7.74,0a1.65,1.65,0,0,0,0-3.3ZM50,74.13a2.58,2.58,0,1,1,2.58-2.58A2.58,2.58,0,0,1,50,74.13Z"/></g></svg>