<svg id="Livello_1" data-name="Livello 1" xmlns="http://www.w3.org/2000/svg" viewBox="0 0 100 100"><defs><style>.cls-1{fill:#f5a714;}.cls-2{fill:#fff;}</style></defs><g id="mostlycloudy"><path class="cls-1" d="M65.88,20.83A1.89,1.89,0,0,1,64,19V13.74a1.88,1.88,0,1,1,3.75,0V19A1.88,1.88,0,0,1,65.88,20.83Z"/><path class="cls-1" d="M88.11,37.92h-5.2a1.88,1.88,0,0,1,0-3.76h5.2a1.88,1.88,0,1,1,0,3.76Z"/><path class="cls-1" d="M78.46,25.75a1.85,1.85,0,0,1-1.32-.55,1.87,1.87,0,0,1,0-2.66l3.67-3.67a1.88,1.88,0,0,1,2.66,2.66L79.79,25.2A1.84,1.84,0,0,1,78.46,25.75Z"/><path class="cls-1" d="M82.13,53.8a1.88,1.88,0,0,1-1.32-.54l-3.67-3.68a1.88,1.88,0,1,1,2.65-2.67l3.68,3.68a1.88,1.88,0,0,1-1.34,3.21Z"/><path class="cls-1" d="M53.87,26a1.85,1.85,0,0,1-1.33-.55l-3.68-3.68a1.88,1.88,0,1,1,2.66-2.65L55.2,22.8A1.88,1.88,0,0,1,53.87,26Z"/><path class="cls-2" d="M69.64,88.14H24.27a14.27,14.27,0,0,1-4.6-27.78c0-.09,0-.18,0-.28a13,13,0,0,1,18-12A18.66,18.66,0,0,1,71.77,58.49a17.93,17.93,0,0,1-.28,3.19,13.3,13.3,0,0,1-1.85,26.46Zm-37-37a8.88,8.88,0,0,0-8.81,10.39l.33,1.93-1.93.39a10.21,10.21,0,0,0,2,20.22H69.64a9.24,9.24,0,0,0,0-18.47l-.47,0-3.09.22L67,63A14.6,14.6,0,0,0,40.19,51.7l-1,1.92-1.86-1.14A8.73,8.73,0,0,0,32.66,51.15Z"/><path class="cls-1" d="M68.21,24a11.73,11.73,0,0,0-13.66,9.44,9.87,9.87,0,0,0-.16,1.61,1.5,1.5,0,0,0,1.38,1.62c1.61.2,1.59-1.58,1.79-2.68a8.68,8.68,0,0,1,17.08,3.12,7.56,7.56,0,0,1-1.09,3.05,11.25,11.25,0,0,1-3,2.75,1.24,1.24,0,0,0,.64,2.17c1.27.26,2.3-.66,3.21-1.49A10.75,10.75,0,0,0,76.93,40a9.82,9.82,0,0,0,.72-2.29A11.73,11.73,0,0,0,68.21,24Z"/></g></svg>