<svg id="Livello_1" data-name="Livello 1" xmlns="http://www.w3.org/2000/svg" viewBox="0 0 100 100"><defs><style>.cls-1{fill:#1b86d0;}.cls-2{fill:#fff;}</style></defs><g id="Showers"><path class="cls-1" d="M38.64,90.12a2.08,2.08,0,0,1-.79-.17,2,2,0,0,1-1.06-2.64L51,53.93a2,2,0,1,1,3.72,1.58L40.5,88.89A2,2,0,0,1,38.64,90.12Z"/><path class="cls-1" d="M51.69,81.28a2,2,0,0,1-1.87-2.79l10-24.34a2,2,0,0,1,3.73,1.54L53.55,80A2,2,0,0,1,51.69,81.28Z"/><path class="cls-1" d="M33.27,81.28a2,2,0,0,1-.78-.16,2,2,0,0,1-1.09-2.63l10-24.34a2,2,0,0,1,2.64-1.09,2,2,0,0,1,1.09,2.63L35.13,80A2,2,0,0,1,33.27,81.28Z"/><path class="cls-2" d="M77.35,34A20.36,20.36,0,0,0,40.34,19,14.09,14.09,0,0,0,20.68,32v.47a15.51,15.51,0,0,0,4.84,30.25h7.64c2.44,0,2.3-4,0-4H25.52a11.48,11.48,0,0,1-2.26-22.73l1.9-.38-.31-1.92a10,10,0,0,1,15.2-10.22l1.84,1.13,1-1.91a16.32,16.32,0,0,1,30.77,7.59,16.54,16.54,0,0,1-.79,5L72,38.1l3.12-.21.49,0a10.4,10.4,0,1,1,0,20.8H66.84c-2.61,0-3,4,0,4h8.72A14.44,14.44,0,0,0,77.35,34Z"/></g></svg>