<svg id="Livello_1" data-name="Livello 1" xmlns="http://www.w3.org/2000/svg" viewBox="0 0 100 100"><defs><style>.cls-1{fill:#fff;}</style></defs><g id="cloudy"><path class="cls-1" d="M75.56,76.42h-50a15.52,15.52,0,0,1-4.85-30.26c0-.16,0-.31,0-.47A14.13,14.13,0,0,1,34.77,31.58a14,14,0,0,1,5.56,1.16,20.36,20.36,0,0,1,37.36,11.2,21,21,0,0,1-.34,3.71,14.44,14.44,0,0,1-1.79,28.77ZM34.77,35.62A10.09,10.09,0,0,0,24.69,45.69a11.34,11.34,0,0,0,.15,1.65l.32,1.92-1.9.38a11.48,11.48,0,0,0,2.26,22.73h50a10.4,10.4,0,1,0,0-20.79l-.5,0L72,51.81,72.86,49a16.32,16.32,0,0,0-30-12.62l-1,1.91-1.83-1.13A10,10,0,0,0,34.77,35.62Z"/></g></svg>