<svg id="Livello_1" data-name="Livello 1" xmlns="http://www.w3.org/2000/svg" viewBox="0 0 100 100"><defs><style>.cls-1{fill:#fff;}.cls-2{fill:#1b86d0;}</style></defs><g id="Chance_of_Showers" data-name="Chance of Showers"><path class="cls-1" d="M77.35,37.8a21,21,0,0,0,.34-3.72,20.36,20.36,0,0,0-37.35-11.2,14.12,14.12,0,0,0-19.68,13c0,.16,0,.31,0,.47a15.52,15.52,0,0,0,4.84,30.26h7.65c2.42,0,2.29-4,0-4H25.51a11.48,11.48,0,0,1-2.26-22.74l1.9-.38-.31-1.92A10.06,10.06,0,0,1,40,27.27l1.84,1.13,1-1.91a16.32,16.32,0,0,1,30,12.63L71.94,42l3.14-.21.48,0a10.41,10.41,0,1,1,0,20.81H66.83c-2.61,0-3,4,0,4h8.73A14.44,14.44,0,0,0,77.35,37.8Z"/><path class="cls-2" d="M37.72,71.79a2,2,0,0,1-1.16-.37,2,2,0,0,1-.48-2.81l3.71-5.28a2,2,0,1,1,3.3,2.33l-3.72,5.27A2,2,0,0,1,37.72,71.79Z"/><path class="cls-2" d="M46.63,71.79A2,2,0,0,1,45,68.61l3.73-5.28A2,2,0,1,1,52,65.66l-3.72,5.27A2,2,0,0,1,46.63,71.79Z"/><path class="cls-2" d="M55.53,71.79a2,2,0,0,1-1.66-3.18l3.72-5.28a2,2,0,1,1,3.3,2.33l-3.72,5.27A2,2,0,0,1,55.53,71.79Z"/><path class="cls-2" d="M28.21,86.27a2,2,0,0,1-1.64-3.18l3.71-5.28a2,2,0,0,1,3.31,2.33l-3.72,5.28A2,2,0,0,1,28.21,86.27Z"/><path class="cls-2" d="M37.12,86.27a2,2,0,0,1-1.65-3.18l3.72-5.28a2,2,0,0,1,3.29,2.33l-3.72,5.28A2,2,0,0,1,37.12,86.27Z"/><path class="cls-2" d="M46,86.27a2,2,0,0,1-1.16-.37,2,2,0,0,1-.48-2.81l3.71-5.28a2,2,0,0,1,3.3,2.33l-3.71,5.28A2,2,0,0,1,46,86.27Z"/></g></svg>