<svg id="Livello_1" data-name="Livello 1" xmlns="http://www.w3.org/2000/svg" viewBox="0 0 100 100"><defs><style>.cls-1{fill:#f5a714;}</style></defs><g id="Clear"><path class="cls-1" d="M50,23.82a2.53,2.53,0,0,1-2.53-2.54V12.53a2.53,2.53,0,1,1,5.06,0v8.75A2.52,2.52,0,0,1,50,23.82Z"/><path class="cls-1" d="M50,90a2.54,2.54,0,0,1-2.53-2.54V78.72a2.53,2.53,0,1,1,5.06,0v8.75A2.53,2.53,0,0,1,50,90Z"/><path class="cls-1" d="M21.29,52.53H12.54a2.53,2.53,0,1,1,0-5.06h8.75a2.53,2.53,0,0,1,0,5.06Z"/><path class="cls-1" d="M87.48,52.53H78.73a2.53,2.53,0,1,1,0-5.06h8.75a2.53,2.53,0,0,1,0,5.06Z"/><path class="cls-1" d="M71.22,32a2.54,2.54,0,0,1-1.79-4.32l6.2-6.2a2.53,2.53,0,1,1,3.56,3.59L73,31.28A2.54,2.54,0,0,1,71.22,32Z"/><path class="cls-1" d="M23.57,79.67a2.5,2.5,0,0,1-1.79-.74,2.55,2.55,0,0,1,0-3.59L28,69.16a2.53,2.53,0,0,1,3.58,3.59l-6.19,6.18A2.49,2.49,0,0,1,23.57,79.67Z"/><path class="cls-1" d="M77.42,79.3a2.5,2.5,0,0,1-1.79-.74l-6.2-6.2a2.51,2.51,0,0,1,0-3.58,2.54,2.54,0,0,1,3.59,0L79.19,75a2.53,2.53,0,0,1,0,3.58A2.56,2.56,0,0,1,77.42,79.3Z"/><path class="cls-1" d="M29.76,32.46A2.47,2.47,0,0,1,28,31.71l-6.19-6.19A2.53,2.53,0,0,1,25.36,22l6.19,6.18a2.51,2.51,0,0,1,0,3.58A2.46,2.46,0,0,1,29.76,32.46Z"/><path class="cls-1" d="M50,33.9A16.11,16.11,0,1,1,33.9,50,16.13,16.13,0,0,1,50,33.9m0-5.08A21.18,21.18,0,1,0,71.18,50,21.17,21.17,0,0,0,50,28.82Z"/></g></svg>