<svg id="Livello_1" data-name="Livello 1" xmlns="http://www.w3.org/2000/svg" viewBox="0 0 100 100"><defs><style>.cls-1{fill:#71b7d3;}.cls-2{fill:#fff;}</style></defs><g id="Flurries"><path class="cls-1" d="M59.58,62.64a3.15,3.15,0,1,0-4.4.58A3.16,3.16,0,0,0,59.58,62.64Z"/><path class="cls-1" d="M45.22,62.64a3.15,3.15,0,1,0-4.41.58A3.15,3.15,0,0,0,45.22,62.64Z"/><path class="cls-1" d="M59.58,88.7a3.15,3.15,0,1,0-4.4.59A3.15,3.15,0,0,0,59.58,88.7Z"/><path class="cls-1" d="M45.22,88.7a3.15,3.15,0,1,0-4.41.59A3.13,3.13,0,0,0,45.22,88.7Z"/><path class="cls-1" d="M51.89,75.66a3.14,3.14,0,1,0-4.4.59A3.14,3.14,0,0,0,51.89,75.66Z"/><path class="cls-1" d="M35.5,75.66a3.15,3.15,0,1,0-4.42.59A3.13,3.13,0,0,0,35.5,75.66Z"/><path class="cls-1" d="M68.3,75.66a3.15,3.15,0,1,0-4.41.59A3.15,3.15,0,0,0,68.3,75.66Z"/><path class="cls-2" d="M77.36,34.13a20,20,0,0,0,.33-3.71,20.35,20.35,0,0,0-37.35-11.2,14.09,14.09,0,0,0-19.67,13v.46A15.52,15.52,0,0,0,25.52,62.9h7.64c2.42,0,2.29-4,0-4H25.52a11.48,11.48,0,0,1-2.27-22.73l1.92-.38-.32-1.93a8.92,8.92,0,0,1-.15-1.64A10.1,10.1,0,0,1,34.78,22.1a10,10,0,0,1,5.27,1.51l1.84,1.13,1-1.91a16.31,16.31,0,0,1,30,12.63L72,38.29l3.13-.21.49,0a10.4,10.4,0,1,1,0,20.8H66.84c-2.62,0-3,4,0,4h8.73a14.44,14.44,0,0,0,1.79-28.77Z"/></g></svg>