<svg id="Livello_1" data-name="Livello 1" xmlns="http://www.w3.org/2000/svg" viewBox="0 0 100 100"><defs><style>.cls-1{fill:#f5a714;}.cls-2{fill:#fff;}</style></defs><g id="partlycloudy"><path class="cls-1" d="M54.89,22.51a2.06,2.06,0,0,1-2.07-2.07V12.72a2.07,2.07,0,0,1,4.13,0v7.72A2.07,2.07,0,0,1,54.89,22.51Z"/><path class="cls-1" d="M29.55,47.9H21.82a2.06,2.06,0,0,1,0-4.12h7.73a2.06,2.06,0,1,1,0,4.12Z"/><path class="cls-1" d="M87.94,47.9H80.22a2.06,2.06,0,1,1,0-4.12h7.72a2.06,2.06,0,1,1,0,4.12Z"/><path class="cls-1" d="M73.6,29.81a2,2,0,0,1-1.45-.6,2.06,2.06,0,0,1,0-2.92l5.45-5.46a2.06,2.06,0,1,1,2.92,2.91l-5.46,5.47A2.09,2.09,0,0,1,73.6,29.81Z"/><path class="cls-1" d="M79.06,71.51a2,2,0,0,1-1.46-.6l-5.45-5.46a2.06,2.06,0,0,1,2.91-2.92L80.52,68a2.06,2.06,0,0,1,0,2.91A2,2,0,0,1,79.06,71.51Z"/><path class="cls-1" d="M37,30.19a2.1,2.1,0,0,1-1.47-.6l-5.45-5.47a2,2,0,0,1,0-2.91,2.08,2.08,0,0,1,2.92,0l5.45,5.46A2.06,2.06,0,0,1,37,30.19Z"/><path class="cls-2" d="M51.63,89.34H20.47a10.47,10.47,0,0,1-3.83-20.22,9.61,9.61,0,0,1,9.59-9.31,9.18,9.18,0,0,1,3.16.55,13.48,13.48,0,0,1,24.36,8A15.2,15.2,0,0,1,53.66,70a9.8,9.8,0,0,1-2,19.38ZM26.23,63.93a5.48,5.48,0,0,0-5.47,5.47,5,5,0,0,0,.09.89l.32,2-2,.39a6.34,6.34,0,0,0,1.26,12.56H51.63a5.67,5.67,0,1,0,0-11.34h-.26l-3.07.21.88-2.9A9.35,9.35,0,0,0,32,64l-1,2-1.88-1.15A5.37,5.37,0,0,0,26.23,63.93Z"/><path class="cls-1" d="M73.57,45.84a18.69,18.69,0,1,0-37.38,0A18,18,0,0,0,36.47,49a2.13,2.13,0,0,0,2.21,2,2.07,2.07,0,0,0,1.76-1,4.87,4.87,0,0,0,0-2.4,13,13,0,0,1-.12-1.76,14.56,14.56,0,1,1,29.12,0,16.13,16.13,0,0,1-.17,1.84,17.8,17.8,0,0,1-.31,1.8,12.85,12.85,0,0,1-1.29,3.33,15.48,15.48,0,0,1-2.07,2.9A12.62,12.62,0,0,1,62.91,58a22.26,22.26,0,0,1-3.26,1.58c-.46.19-1,.21-1.43.43A2.14,2.14,0,0,0,57.27,61a2,2,0,0,0-.17.8,2.15,2.15,0,0,0,2.17,2.11s0,0,0,0C67.35,62.34,73.57,54.64,73.57,45.84Z"/></g></svg>