<svg id="Livello_1" data-name="Livello 1" xmlns="http://www.w3.org/2000/svg" viewBox="0 0 100 100"><defs><style>.cls-1{fill:#1b86d0;}.cls-2{fill:#f5a714;}.cls-3{fill:#fff;}</style></defs><g id="Thunderstorm"><path class="cls-1" d="M29.82,80.67a2,2,0,0,1-.87-.2A2,2,0,0,1,28,77.78L32.22,69a2,2,0,0,1,3.64,1.75l-4.21,8.8A2,2,0,0,1,29.82,80.67Z"/><path class="cls-1" d="M19.8,80.67a2.12,2.12,0,0,1-.87-.2A2,2,0,0,1,18,77.78L22.21,69a2,2,0,0,1,3.64,1.75l-4.22,8.8A2,2,0,0,1,19.8,80.67Z"/><path class="cls-1" d="M71.13,80.67a2.13,2.13,0,0,1-.88-.2,2,2,0,0,1-.94-2.69L73.53,69a2,2,0,0,1,3.64,1.75l-4.23,8.8A2,2,0,0,1,71.13,80.67Z"/><path class="cls-1" d="M61.11,80.67a2.12,2.12,0,0,1-.87-.2,2,2,0,0,1-.94-2.69L63.52,69a2,2,0,0,1,3.64,1.75l-4.23,8.8A2,2,0,0,1,61.11,80.67Z"/><path class="cls-2" d="M42,90.18a2,2,0,0,1-1.73-3.07l12-19.89H39.77L54,47.05a2,2,0,1,1,3.3,2.33l-9.73,13.8h12l-15.77,26A2,2,0,0,1,42,90.18Z"/><path class="cls-3" d="M77.36,33.88a20.81,20.81,0,0,0,.34-3.71A20.36,20.36,0,0,0,40.33,19a13.92,13.92,0,0,0-5.56-1.16A14.13,14.13,0,0,0,20.66,31.93c0,.15,0,.31,0,.47a15.51,15.51,0,0,0,4.85,30.25h7.65c2.42,0,2.28-4,0-4H25.52a11.48,11.48,0,0,1-2.26-22.74l1.9-.37-.31-1.93a10,10,0,0,1,9.92-11.73,10.11,10.11,0,0,1,5.28,1.51l1.83,1.13,1-1.91a16.32,16.32,0,0,1,30.76,7.59,16.44,16.44,0,0,1-.79,5L72,38l3.13-.2a3.79,3.79,0,0,1,.49,0,10.41,10.41,0,1,1,0,20.81H66.84c-2.62,0-3,4,0,4h8.73a14.44,14.44,0,0,0,1.79-28.77Z"/></g></svg>