<svg id="Livello_1" data-name="Livello 1" xmlns="http://www.w3.org/2000/svg" viewBox="0 0 100 100"><defs><style>.cls-1{fill:#71b7d3;}</style></defs><g id="Snow_Showers" data-name="Snow Showers"><path class="cls-1" d="M88,48H77.38l4.47-4.47a2,2,0,0,0,0-2.82,2,2,0,0,0-2.83,0L71.73,48H54.83l12-12H77.09a2,2,0,1,0,0-4H70.77l7.52-7.51a2,2,0,1,0-2.83-2.83l-7.52,7.5v-6.3a2,2,0,1,0-4,0v10.3l-12,12V28.28L59.29,21a2,2,0,0,0-2.83-2.83L52,22.62V12a2,2,0,1,0-4,0V22.62l-4.46-4.46A2,2,0,0,0,40.7,21L48,28.28V45.17l-11.94-12V22.91a2,2,0,0,0-4,0v6.31l-7.51-7.5a2,2,0,1,0-2.83,2.83l7.5,7.51h-6.3a2,2,0,0,0,0,4H33.22l12,12H28.27L21,40.72a2,2,0,1,0-2.83,2.82L22.63,48H12a2,2,0,1,0,0,4H22.63l-4.47,4.46a2,2,0,0,0,0,2.83,1.94,1.94,0,0,0,1.41.58A2,2,0,0,0,21,59.29L28.27,52h16.9l-12,12H22.91a2,2,0,0,0,0,4h6.3l-7.5,7.52a2,2,0,0,0,0,2.83,2.06,2.06,0,0,0,1.42.59,2,2,0,0,0,1.41-.59l7.51-7.52v6.32a2,2,0,0,0,4,0V66.77L48,54.83v16.9L40.7,79a2,2,0,0,0,0,2.84,2.09,2.09,0,0,0,1.43.58,2,2,0,0,0,1.41-.58L48,77.38V88a2,2,0,1,0,4,0V77.38l4.46,4.47a2,2,0,0,0,1.42.58A2,2,0,0,0,59.29,79L52,71.73V54.83L64,66.77V77.09a2,2,0,1,0,4,0V70.77l7.52,7.52a2,2,0,0,0,1.4.59,2.08,2.08,0,0,0,1.43-.59,2,2,0,0,0,0-2.83l-7.52-7.52h6.32a2,2,0,1,0,0-4H66.78l-12-12h16.9L79,59.29a1.92,1.92,0,0,0,1.4.58,2,2,0,0,0,1.43-.58,2,2,0,0,0,0-2.83L77.38,52H88a2,2,0,0,0,0-4Z"/></g></svg>